<svg width="200" height="200" viewBox="0 0 200 200" fill="none" xmlns="http://www.w3.org/2000/svg">
<rect width="200" height="200" fill="#1E1E1E"/>
<circle cx="100" cy="100" r="100" fill="#D9D9D9"/>
<path d="M164.5 38.9856C164.492 37.0526 162.919 35.4921 160.986 35.5L129.486 35.6297C127.553 35.6376 125.992 37.2111 126 39.144C126.008 41.077 127.582 42.6376 129.515 42.6296L157.514 42.5144L157.63 70.5141C157.638 72.4471 159.211 74.0077 161.144 73.9997C163.077 73.9918 164.638 72.4183 164.63 70.4853L164.5 38.9856ZM40 161L42.485 163.465L163.485 41.4647L161 39L158.515 36.5353L37.515 158.535L40 161Z" fill="#A2157F"/>
</svg>
